<?xml version="1.0" encoding="utf-8"?>
<!-- Generator: Adobe Illustrator 24.1.0, SVG Export Plug-In . SVG Version: 6.00 Build 0)  -->
<svg version="1.1"
	 id="svg1379" inkscape:version="0.92.3 (2405546, 2018-03-11)" sodipodi:docname="drawing.svg" xmlns:cc="http://creativecommons.org/ns#" xmlns:dc="http://purl.org/dc/elements/1.1/" xmlns:inkscape="http://www.inkscape.org/namespaces/inkscape" xmlns:rdf="http://www.w3.org/1999/02/22-rdf-syntax-ns#" xmlns:sodipodi="http://sodipodi.sourceforge.net/DTD/sodipodi-0.dtd" xmlns:svg="http://www.w3.org/2000/svg"
	 xmlns="http://www.w3.org/2000/svg" xmlns:xlink="http://www.w3.org/1999/xlink" x="0px" y="0px" viewBox="0 0 96 26.4"
	 style="enable-background:new 0 0 96 26.4;" xml:space="preserve">
<style type="text/css">
	.st0{fill:#FFFFFF;}
</style>
<path id="path542" inkscape:connector-curvature="0" class="st0" d="M9.2,16.5l0.3,2.3C8,19,6.4,19.2,4.9,19.5l-0.6-2.2
	C5.9,16.9,7.6,16.7,9.2,16.5 M16.1,16.1v2.3c-1.6,0-3.1,0.1-4.7,0.2l-0.3-2.3C12.8,16.2,14.5,16.1,16.1,16.1 M18.1,16.1
	c1.7,0,3.3,0.1,5,0.2l-0.3,2.3c-1.5-0.1-3.1-0.2-4.7-0.2L18.1,16.1z M25,16.5c1.7,0.2,3.3,0.4,5,0.7l-0.6,2.2
	c-1.5-0.3-3.1-0.5-4.7-0.6L25,16.5z M3.5,21.6L3.5,21.6L4,23.3c4.3-0.8,8.7-1.3,13.1-1.3c4.4,0,8.8,0.4,13.1,1.3l0.5-1.7l0,0
	l3.7-12.9c0.1-0.5-0.1-1-0.7-1.2c-0.5-0.1-1,0.1-1.2,0.7l-2.1,7.2c-1.7-0.3-3.5-0.6-5.3-0.7l1.5-10.8c0.1-0.5-0.3-1-0.8-1.1
	c-0.5-0.1-1,0.3-1.1,0.8l-1.5,10.9c-1.7-0.1-3.5-0.2-5.2-0.3V1c0-0.5-0.4-1-1-1l0,0c-0.5,0-1,0.4-1,1v13.2c-1.8,0-3.5,0.1-5.2,0.3
	L9.4,3.5C9.3,3,8.8,2.6,8.3,2.7C7.7,2.8,7.4,3.3,7.5,3.8L9,14.6c-1.8,0.2-3.5,0.4-5.3,0.7L1.7,8.2C1.5,7.7,1,7.4,0.5,7.5
	c-0.5,0.1-0.8,0.7-0.7,1.2L3.5,21.6z"/>
<path id="path542_1_" inkscape:connector-curvature="0" class="st0" d="M44.9,13.1l1.5-4.6l1.5,4.6H44.9z M48,5.9h-3l-4.1,11.5
	l2.7,0l0.8-2.2h4.3l0.8,2.2l0.1,0H52l0,0h0L48,5.9z M94.4,6h-3.2l-2.2,7l-2.2-7h-3.2l-0.9,11.4h2.5l0.6-8l2.3,8h2l2.3-8l0.6,8h2.5v0
	L94.4,6z M77.8,10.4C76.3,9.9,76,9.5,76,8.9c0-0.6,0.5-1,1.4-1c0.9,0,1.9,0.3,3,0.9l0.4-2.2c-0.9-0.4-1.9-0.7-3.4-0.7
	c-2.4,0-3.9,1.3-3.9,3.3c0,1.9,1,2.6,3.3,3.5c1.6,0.6,2,1,2,1.7c0,0.7-0.6,1.2-1.5,1.2c-1.1,0-2.3-0.4-3.6-1l-0.4,2.2
	c1.3,0.6,2.5,0.8,3.9,0.8c2.5,0,4.1-1.3,4.1-3.5C81.3,12.2,80.4,11.4,77.8,10.4 M57.2,15.5H56v-3.2h1.1c1.3,0,2,0.6,2,1.7
	C59.2,15,58.5,15.5,57.2,15.5 M56,7.8h1.1c1.4,0,1.7,0.8,1.7,1.4c0,0.9-0.7,1.5-1.8,1.5H56V7.8z M59.6,11.4l-0.3-0.1l0.3-0.1
	c0.7-0.3,1.6-1,1.6-2.4C61.2,7,59.9,6,57.4,6h-3.9v11.4h3.8c2.8,0,4.4-1.2,4.4-3.2C61.7,12.7,61,11.9,59.6,11.4 M67.2,11.5h-1V7.9h1
	c1.3,0,2,0.6,2,1.8C69.2,10.9,68.5,11.5,67.2,11.5 M71.8,9.5c0-2.3-1.5-3.6-4.4-3.6h-4v11.4h2.6v-4h1l2.5,4h3l-3-4.6l0.1-0.1
	C71.1,12.1,71.8,11,71.8,9.5"/>
</svg>
