<?xml version="1.0" encoding="utf-8"?>
<!-- Generator: Adobe Illustrator 24.1.0, SVG Export Plug-In . SVG Version: 6.00 Build 0)  -->
<svg version="1.1"
	 id="svg1379" inkscape:version="0.92.3 (2405546, 2018-03-11)" sodipodi:docname="drawing.svg" xmlns:cc="http://creativecommons.org/ns#" xmlns:dc="http://purl.org/dc/elements/1.1/" xmlns:inkscape="http://www.inkscape.org/namespaces/inkscape" xmlns:rdf="http://www.w3.org/1999/02/22-rdf-syntax-ns#" xmlns:sodipodi="http://sodipodi.sourceforge.net/DTD/sodipodi-0.dtd" xmlns:svg="http://www.w3.org/2000/svg"
	 xmlns="http://www.w3.org/2000/svg" xmlns:xlink="http://www.w3.org/1999/xlink" x="0px" y="0px" viewBox="0 0 80.8 82.3"
	 style="enable-background:new 0 0 80.8 82.3;" xml:space="preserve">
<style type="text/css">
	.st0{clip-path:url(#SVGID_2_);}
	.st1{fill:#FFFFFF;}
</style>
<g id="g532">
	<g>
		<defs>
			<rect id="SVGID_1_" x="0.3" y="0.3" width="80.2" height="81.7"/>
		</defs>
		<clipPath id="SVGID_2_">
			<use xlink:href="#SVGID_1_"  style="overflow:visible;"/>
		</clipPath>
		<g id="g534" class="st0">
			<g id="g540" transform="translate(489.9297,789.9968)">
				<path id="path542" inkscape:connector-curvature="0" class="st1" d="M-477.9-737.8l1.8-5.5l1.8,5.5H-477.9z M-474.3-746.4h-3.6
					l-4.8,13.6l3.2,0l0.9-2.6h5l0.9,2.6l0.2,0h3l0,0h0L-474.3-746.4z M-419.3-746.3h-3.8l-2.6,8.2l-2.6-8.2h-3.8l-1.1,13.5h2.9
					l0.7-9.4l2.7,9.5h2.4l2.7-9.4l0.7,9.4h2.9v0L-419.3-746.3z M-439-741c-1.7-0.7-2.2-1-2.2-1.8c0-0.8,0.6-1.2,1.7-1.2
					c1,0,2.3,0.4,3.5,1l0.5-2.6c-1.1-0.5-2.2-0.9-4-0.9c-2.8,0-4.6,1.5-4.6,3.9c0,2.2,1.2,3.1,3.9,4.1c1.9,0.7,2.4,1.1,2.4,2
					c0,0.8-0.7,1.4-1.8,1.4c-1.3,0-2.8-0.4-4.3-1.2l-0.5,2.6c1.5,0.7,3,1,4.7,1c3,0,4.8-1.6,4.8-4.2
					C-434.9-738.9-435.9-739.9-439-741 M-463.4-735h-1.4v-3.8h1.4c1.5,0,2.4,0.7,2.4,2C-461.1-735.6-461.9-735-463.4-735
					 M-464.8-744.1h1.4c1.7,0,2,0.9,2,1.6c0,1.1-0.8,1.8-2.1,1.8h-1.3V-744.1z M-460.5-739.8l-0.3-0.1l0.3-0.1
					c0.9-0.4,1.9-1.2,1.9-2.8c0-2.3-1.6-3.4-4.5-3.4h-4.6v13.5h4.5c3.3,0,5.2-1.4,5.2-3.8C-458.1-738.3-458.9-739.3-460.5-739.8
					 M-451.6-739.7h-1.2v-4.3h1.2c1.6,0,2.4,0.8,2.4,2.1C-449.2-740.5-450.1-739.7-451.6-739.7 M-446.1-742.1c0-2.7-1.8-4.2-5.2-4.2
					h-4.7v13.5h3.1v-4.7h1.1l2.9,4.7h3.5l-3.5-5.4l0.1-0.1C-446.9-739-446.1-740.3-446.1-742.1 M-456.2-758.3l0.3,1.9
					c-1.3,0.1-2.6,0.3-3.9,0.5l-0.5-1.9C-458.9-757.9-457.6-758.1-456.2-758.3 M-450.5-758.6v1.9c-1.3,0-2.6,0.1-3.8,0.2l-0.3-1.9
					C-453.2-758.5-451.9-758.6-450.5-758.6 M-448.9-758.6c1.4,0,2.7,0.1,4.1,0.2l-0.3,1.9c-1.3-0.1-2.6-0.2-3.8-0.2V-758.6z
					 M-443.2-758.3c1.4,0.1,2.8,0.3,4.1,0.6l-0.5,1.9c-1.3-0.2-2.6-0.4-3.9-0.5L-443.2-758.3z M-460.9-754.1L-460.9-754.1l0.4,1.4
					c3.5-0.7,7.2-1,10.8-1c3.6,0,7.3,0.4,10.8,1l0.4-1.4l0,0l3-10.6c0.1-0.4-0.1-0.9-0.5-1c-0.4-0.1-0.9,0.1-1,0.5l-1.7,5.9
					c-1.4-0.3-2.9-0.5-4.3-0.6l1.3-8.9c0.1-0.4-0.2-0.8-0.7-0.9c-0.4-0.1-0.8,0.2-0.9,0.7l-1.3,9c-1.4-0.1-2.9-0.2-4.3-0.2v-10.9
					c0-0.4-0.4-0.8-0.8-0.8l0,0c-0.4,0-0.8,0.4-0.8,0.8v10.9c-1.4,0-2.9,0.1-4.3,0.2l-1.3-9c-0.1-0.4-0.5-0.7-0.9-0.7
					c-0.4,0.1-0.7,0.5-0.7,0.9l1.3,8.9c-1.5,0.2-2.9,0.4-4.3,0.6l-1.7-5.9c-0.1-0.4-0.6-0.7-1-0.5c-0.4,0.1-0.7,0.6-0.5,1
					L-460.9-754.1z M-442-725.6h-15.4c-0.4,0-0.8,0.4-0.8,0.8c0,0.4,0.4,0.8,0.8,0.8h15.4c0.4,0,0.8-0.4,0.8-0.8
					C-441.2-725.3-441.6-725.6-442-725.6"/>
			</g>
		</g>
	</g>
</g>
</svg>
